# xmcd
#
# Track frame offsets:
# 150
# 17604
# 33190
# 52497
# 65439
# 79467
# 97398
# 112469
# 129677
# 147349
# 166700
# 179706
#
# Disc length: 2619 seconds
#
#
# Revision: 0
# Processed by: cddbd v1.5.1PL2 Copyright (c) Steve Scherf et al.
# Submitted via: FreeRIP 2.945 
#
DISCID=bb0a390c
DTITLE=Milionário e José Rico - Vol 12 - Tribunal do Amor
DYEAR=1982
DGENRE=Sertanejo
TTITLE0=TRIBUNAL DO AMOR
TTITLE1=TRISTE LIÇÃO
TTITLE2=MÃE DE LEITE
TTITLE3=CANTO DE SAUDADE
TTITLE4=JORNADA DA VIDA
TTITLE5=CRUEL SAUDADE
TTITLE6=CORPO E ALMA
TTITLE7=MINHA SÚPLICA DE AMOR
TTITLE8=MUDANÇA
TTITLE9=RESTO DE GENTE
TTITLE10=SER HUMANO
TTITLE11=DECEPÇÃO
EXTD=
EXTT0=
EXTT1=
EXTT2=
EXTT3=
EXTT4=
EXTT5=
EXTT6=
EXTT7=
EXTT8=
EXTT9=
EXTT10=
EXTT11=
PLAYORDER=
